<?xml version="1.0" standalone="yes"?>
<svg width="50" height="50">
<path style="fill:#ffffff; stroke:none;" d="M0 0L0 50L35 50L35 49C27.0012 42.321 17.9686 44 8 44L8 14L7 14L1 22C3.98741 5.24089 13.7242 6 28 6C31.9027 6 38.1738 4.83607 41.6096 7.02778C45.7378 9.6612 48.1892 17.4516 49 22L43 14L42 14L42 30L49 35L50 35L50 0L0 0z"/>
<path style="fill:#000000; stroke:none;" d="M1 22L7 14L8 14L8 44C13.9702 44 21.1732 42.8939 26.9853 44.314C33.4132 45.8847 36.318 51.8992 43.9599 49.4861C53.9668 46.3262 50.7357 32.1223 42 30L42 14L43 14L49 22C48.5315 17.4256 46.3726 9.8273 42.3627 7.02778C38.9733 4.66148 31.943 6 28 6C14.003 6 2.77768 4.64462 1 22z"/>
<path style="fill:#ffffff; stroke:none;" d="M20 13L20 15L30 15L30 13L20 13M37.1088 33.7461C29.0258 37.0969 34.5978 49.6918 42.8912 46.2539C50.9742 42.9031 45.4022 30.3082 37.1088 33.7461z"/>
<path style="fill:#000000; stroke:none;" d="M39 34L39 39L34 39L34 41L39 41L39 46L41 46L41 41L46 41L46 39L41 39L41 34L39 34z"/>
<path style="fill:#ffffff; stroke:none;" d="M49 45L45 49L45 50L50 50L49 45z"/>
</svg>
