<svg width="24" height="25" viewBox="0 0 24 25" fill="none" xmlns="http://www.w3.org/2000/svg">
<path fill-rule="evenodd" clip-rule="evenodd" d="M7.93022 5.08094C6.96474 5.08094 6.01274 5.35315 5.1694 5.86934C2.5593 7.4692 1.64075 11.041 3.1568 13.8285C3.44047 14.3505 3.94851 14.9774 4.60084 15.6566C5.24954 16.332 6.02602 17.044 6.83187 17.736C8.44342 19.1198 10.1583 20.4115 11.1715 21.1534L11.1718 21.1536C11.4145 21.3318 11.6997 21.425 11.9994 21.425C12.2984 21.425 12.5843 21.3321 12.8323 21.1528C13.8457 20.4109 15.56 19.1194 17.1712 17.736C17.977 17.044 18.7535 16.332 19.4022 15.6566C20.0545 14.9774 20.5625 14.3506 20.8462 13.8286C22.3582 11.041 21.4394 7.46901 18.8292 5.86924C17.986 5.35311 17.034 5.08094 16.0686 5.08094C14.6221 5.08094 13.2605 5.66466 12.2369 6.71009L11.9994 6.95261L11.7619 6.71009C10.7383 5.66466 9.37677 5.08094 7.93022 5.08094ZM4.82128 5.31573C5.76585 4.73757 6.8379 4.42944 7.93022 4.42944C9.45148 4.42944 10.8854 5.003 11.9994 6.02729C13.1134 5.003 14.5473 4.42944 16.0686 4.42944C17.1609 4.42944 18.233 4.73757 19.1775 5.31573C22.0997 7.10674 23.0956 11.0625 21.4283 14.1362C21.1026 14.7355 20.5463 15.4126 19.8815 16.1047C19.2131 16.8006 18.4197 17.5276 17.6047 18.2274C15.9746 19.6271 14.2443 20.9303 13.2251 21.6766L13.2236 21.6777C12.8646 21.9374 12.4423 22.0765 11.9994 22.0765C11.5569 22.0765 11.1337 21.9376 10.7777 21.6764C9.75839 20.9301 8.0283 19.627 6.39834 18.2274C5.58337 17.5276 4.7899 16.8006 4.12151 16.1047C3.45679 15.4127 2.90059 14.7358 2.57493 14.1366M4.82128 5.31573C1.89911 7.10672 0.903196 11.0627 2.57493 14.1366L4.82128 5.31573ZM5.49188 6.36854C6.23383 5.91491 7.07388 5.67302 7.93022 5.67302C9.43239 5.67302 10.8222 6.38998 11.7574 7.61879L11.7584 7.62004L11.9994 7.93993L12.2404 7.62005L12.2414 7.61879C13.1768 6.38984 14.5708 5.67302 16.0686 5.67302C16.9247 5.67302 17.765 5.91478 18.5032 6.36883C20.8747 7.82111 21.6693 11.044 20.3064 13.548C20.0011 14.1091 19.4442 14.7642 18.7801 15.4366C18.111 16.1141 17.3134 16.8287 16.5074 17.5099C14.895 18.8725 13.2341 20.1139 12.4663 20.6773L12.4647 20.6786C12.1882 20.8789 11.8064 20.8789 11.5299 20.6786L11.5287 20.6777C10.7606 20.1161 9.09961 18.8756 7.48719 17.513C6.68113 16.8318 5.88351 16.1169 5.21437 15.4388C4.55039 14.766 3.99359 14.1102 3.68821 13.548M5.84004 6.92213C3.78369 8.18526 3.06095 11.0186 4.26998 13.2398C4.52968 13.718 5.03242 14.3205 5.68752 14.9844C6.33757 15.6431 7.11888 16.3439 7.91678 17.0182C9.51168 18.366 11.1581 19.5958 11.9211 20.1537C11.9648 20.1851 12.0293 20.1852 12.0731 20.154C12.8364 19.5937 14.4829 18.363 16.0778 17.0151C16.8758 16.3408 17.6571 15.6402 18.3072 14.982C18.9623 14.3186 19.4649 13.7171 19.7246 13.2398C20.9338 11.0183 20.2106 8.181 18.1547 6.92221L18.1541 6.92185C17.5177 6.53038 16.7979 6.32452 16.0686 6.32452C14.792 6.32452 13.5887 6.93395 12.7699 8.00936C12.7698 8.00957 12.7696 8.00978 12.7694 8.00999L11.9994 9.03192L11.2294 8.00999C11.2292 8.00976 11.229 8.00954 11.2288 8.00931C10.4099 6.93379 9.21084 6.32452 7.93022 6.32452C7.20116 6.32452 6.48112 6.53025 5.84004 6.92213ZM5.49188 6.36854L5.49132 6.36889L5.49188 6.36854ZM5.49132 6.36889C3.12029 7.82509 2.32515 11.0437 3.68821 13.548L5.49132 6.36889Z" fill="#333333"/>
<path d="M11.9994 21.7236C11.6292 21.7236 11.2758 21.6079 10.9771 21.3889C8.94934 19.9055 4.10293 16.2156 2.88712 13.9802C1.29689 11.0589 2.25187 7.30703 5.01163 5.61704C5.90351 5.07162 6.91318 4.78238 7.93968 4.78238C9.47521 4.78238 10.9182 5.40218 11.9994 6.50542C13.0806 5.40218 14.5236 4.78238 16.0591 4.78238C17.0856 4.78238 18.0953 5.07162 18.9871 5.61704C21.7469 7.30703 22.7019 11.0589 21.1159 13.9802C19.9001 16.2156 15.0536 19.9055 13.0259 21.3889C12.723 21.6079 12.3696 21.7236 11.9994 21.7236ZM7.93968 6.02198C7.14877 6.02198 6.37048 6.2451 5.68054 6.66657C3.47189 8.02186 2.71463 11.0382 3.99776 13.3935C5.12522 15.4677 10.1988 19.2774 11.7259 20.3931C11.8858 20.5087 12.1088 20.5087 12.2686 20.3931C13.7958 19.2733 18.8694 15.4636 19.9968 13.3935C21.2799 11.0382 20.5227 8.01773 18.314 6.66657C17.6283 6.2451 16.85 6.02198 16.0591 6.02198C14.675 6.02198 13.3793 6.6831 12.5042 7.83179L11.9994 8.50117L11.4946 7.83179C10.6195 6.6831 9.32797 6.02198 7.93968 6.02198Z" fill="#333333"/>
</svg>
