<svg width="22" height="22" viewBox="0 0 22 22" fill="none" xmlns="http://www.w3.org/2000/svg">
<path d="M2.73077 10.6054L10.6179 2.63349L18.505 10.6054C18.7395 10.8424 18.8711 11.1621 18.8711 11.4993V17.7243C18.8711 17.9607 18.6813 18.1394 18.4695 18.1394H13.9249C13.7214 18.1394 13.5398 17.9691 13.5398 17.741V13.9759C13.5398 12.3591 12.2396 11.0317 10.6179 11.0317C8.99617 11.0317 7.69596 12.3591 7.69596 13.9759V17.741C7.69596 17.9691 7.51443 18.1394 7.31088 18.1394H2.76631C2.55448 18.1394 2.36467 17.9607 2.36467 17.7243V11.4993C2.36467 11.1621 2.49625 10.8424 2.73077 10.6054Z" fill="#333333" stroke="#333333" stroke-width="1.70493"/>
</svg>
