<svg width="22" height="22" viewBox="0 0 22 22" fill="none" xmlns="http://www.w3.org/2000/svg">
<path fill-rule="evenodd" clip-rule="evenodd" d="M7.88911 3.15448L10.1965 6.03867L10.0806 6.10303H13.9139L11.555 3.15448H7.88911ZM18.5447 6.10303H15.7175L15.8334 6.03867L13.526 3.15448H15.7696C17.3023 3.15448 18.5447 4.39692 18.5447 5.92955V6.10303ZM8.27695 6.10303L5.93089 3.17045C4.53909 3.31978 3.45526 4.49809 3.45526 5.92955V6.10303H8.27695ZM3.45526 15.4688V7.66401H18.5447V15.4688C18.5447 17.0015 17.3023 18.2439 15.7696 18.2439H6.23033C4.6977 18.2439 3.45526 17.0015 3.45526 15.4688ZM6.23033 1.59351C3.8356 1.59351 1.89429 3.53482 1.89429 5.92955V15.4688C1.89429 17.8636 3.8356 19.8049 6.23033 19.8049H15.7696C18.1644 19.8049 20.1057 17.8636 20.1057 15.4688V5.92955C20.1057 3.53482 18.1644 1.59351 15.7696 1.59351H6.23033ZM13.8184 12.8091C14.1074 12.6422 14.1074 12.225 13.8184 12.0581L9.26553 9.42952C8.97646 9.26263 8.61512 9.47125 8.61512 9.80504L8.61512 15.0622C8.61512 15.396 8.97646 15.6046 9.26553 15.4377L13.8184 12.8091Z" fill="url(#paint0_linear_11575_3032)"/>
<defs>
<linearGradient id="paint0_linear_11575_3032" x1="15.126" y1="2.30489" x2="5.73575" y2="18.9512" gradientUnits="userSpaceOnUse">
<stop stop-color="#110F11"/>
<stop offset="1" stop-color="#FAA958"/>
</linearGradient>
</defs>
</svg>
