<svg width="22" height="22" viewBox="0 0 22 22" fill="none" xmlns="http://www.w3.org/2000/svg">
<path fill-rule="evenodd" clip-rule="evenodd" d="M19.8758 19.2015C20.0415 19.0374 20.042 18.7697 19.8768 18.605L16.145 14.8845C17.4159 13.4707 18.1944 11.6121 18.1944 9.56477C18.1944 5.16379 14.6133 1.59351 10.1988 1.59351C5.78443 1.59351 2.20325 5.16379 2.20325 9.56477C2.20325 13.9658 5.78443 17.536 10.1988 17.536C12.2609 17.536 14.1293 16.7515 15.5475 15.4761L19.2832 19.2004C19.4468 19.3636 19.7115 19.3641 19.8758 19.2015ZM3.04489 9.56477C3.04489 5.63368 6.25575 2.43259 10.1988 2.43259C14.1419 2.43259 17.3528 5.63368 17.3528 9.56477C17.3528 13.4959 14.1419 16.697 10.1988 16.697C6.25575 16.697 3.04489 13.4959 3.04489 9.56477Z" fill="#333333" stroke="#333333" stroke-width="0.852466" stroke-linecap="round" stroke-linejoin="round"/>
</svg>
