<svg width="24" height="25" viewBox="0 0 24 25" fill="none" xmlns="http://www.w3.org/2000/svg">
<path fill-rule="evenodd" clip-rule="evenodd" d="M22.0768 4.86371C21.8654 4.4922 21.4676 4.27728 21.0497 4.27728L2.95778 4.29043C2.45393 4.29047 2.01711 4.60165 1.84249 5.06531L1.84232 5.06575C1.71661 5.40098 1.7448 5.76669 1.91741 6.06876L1.91982 6.07298L1.92235 6.07712C1.98731 6.18342 2.0698 6.28355 2.16971 6.37171L9.05615 12.3102L10.7346 21.2262L10.7348 21.2267C10.8265 21.7207 11.2089 22.0886 11.7046 22.1672C12.1952 22.2457 12.6782 22.0146 12.9303 21.5884L12.9307 21.5877L22.0705 6.05085L21.8675 5.69818C21.8676 5.69804 21.8676 5.6979 21.8677 5.69776L22.0707 6.05045C22.2884 5.68125 22.2897 5.23011 22.0768 4.86371ZM21.2537 4.63154L21.0497 4.27728L21.2536 4.63151C21.2537 4.63152 21.2537 4.63153 21.2537 4.63154ZM10.091 10.5802L5.07797 6.25282H17.6742L10.091 10.5802ZM12.2907 18.7762L11.0688 12.2839L18.6668 7.95074L12.2907 18.7762Z" fill="#333333"/>
</svg>
