<svg width="22" height="22" viewBox="0 0 22 22" fill="none" xmlns="http://www.w3.org/2000/svg">
<path fill-rule="evenodd" clip-rule="evenodd" d="M10.8915 3.11706C9.87701 3.11706 9.0546 3.93696 9.0546 4.94836V5.94569H7.5264V4.94836C7.5264 3.09552 9.033 1.59351 10.8915 1.59351C12.75 1.59351 14.2566 3.09552 14.2566 4.94836V5.94569H12.7284V4.94836C12.7284 3.93696 11.906 3.11706 10.8915 3.11706ZM15.4121 7.46927H5.97001C5.43202 7.46927 4.98675 7.8863 4.9532 8.42161L4.55146 14.8298C4.42316 16.8764 6.05349 18.6065 8.11032 18.6065H13.2718C15.3286 18.6065 16.9589 16.8764 16.8306 14.8298L16.4289 8.42161C16.3953 7.8863 15.9501 7.46927 15.4121 7.46927ZM5.97001 5.94572C4.62503 5.94572 3.51187 6.9883 3.42797 8.32658L3.02624 14.7348C2.84295 17.6585 5.17199 20.1301 8.11032 20.1301H13.2718C16.2101 20.1301 18.5391 17.6585 18.3559 14.7348L17.9541 8.32658C17.8702 6.9883 16.7571 5.94572 15.4121 5.94572H5.97001ZM12.7281 9.33661C12.7281 10.348 11.9057 11.1679 10.8912 11.1679C9.87673 11.1679 9.05433 10.348 9.05433 9.33661L9.05433 9.13715C9.05433 8.71643 8.71223 8.37537 8.29023 8.37537C7.86823 8.37537 7.52613 8.71643 7.52613 9.13715V9.33661C7.52613 11.1894 9.03273 12.6915 10.8912 12.6915C12.7497 12.6915 14.2563 11.1894 14.2563 9.33661V9.13715C14.2563 8.71643 13.9142 8.37537 13.4922 8.37537C13.0702 8.37537 12.7281 8.71643 12.7281 9.13715V9.33661Z" fill="#333333"/>
</svg>
